HIERARCHY
ROOT Hips
{
	OFFSET -3.958830 18.904000 13.208200
	CHANNELS 6 Xposition Yposition Zposition Zrotation Yrotation Xrotation 
	JOINT LHipJoint
	{
		OFFSET 0.000000 0.000000 0.000000
		CHANNELS 3 Zrotation Yrotation Xrotation
		JOINT LeftUpLeg
		{
			OFFSET 1.800000 -1.400000 0.085000
			CHANNELS 3 Zrotation Yrotation Xrotation
			JOINT LeftLeg
			{
				OFFSET 2.215000 -6.000000 0.000000
				CHANNELS 3 Zrotation Yrotation Xrotation
				JOINT LeftFoot
				{
					OFFSET 2.500000 -6.900000 0.000000
					CHANNELS 3 Zrotation Yrotation Xrotation
					JOINT LeftToeBase
					{
						OFFSET 0.200000 -0.500000 1.950000
						CHANNELS 3 Zrotation Yrotation Xrotation
						End Site
						{
							OFFSET 0.000000 0.000000 0.000000
						}
					}
				}
			}
		}
	}
	JOINT RHipJoint
	{
		OFFSET 0.000000 0.000000 0.000000
		CHANNELS 3 Zrotation Yrotation Xrotation
		JOINT RightUpLeg
		{
			OFFSET -1.800000 -1.400000 0.085000
			CHANNELS 3 Zrotation Yrotation Xrotation
			JOINT RightLeg
			{
				OFFSET -2.215000 -6.000000 0.000000
				CHANNELS 3 Zrotation Yrotation Xrotation
				JOINT RightFoot
				{
					OFFSET -2.500000 -6.900000 0.000000
					CHANNELS 3 Zrotation Yrotation Xrotation
					JOINT RightToeBase
					{
						OFFSET -0.200000 -0.500000 1.950000
						CHANNELS 3 Zrotation Yrotation Xrotation
						End Site
						{
							OFFSET 0.000000 0.000000 0.000000
						}
					}
				}
			}
		}
	}
	JOINT LowerBack
	{
		OFFSET 0.000000 0.000000 0.000000
		CHANNELS 3 Zrotation Yrotation Xrotation
		JOINT Spine
		{
			OFFSET -0.087000 1.940000 -0.288900
			CHANNELS 3 Zrotation Yrotation Xrotation
			JOINT Spine1
			{
				OFFSET 0.000000 1.950000 0.060000
				CHANNELS 3 Zrotation Yrotation Xrotation
				JOINT Neck
				{
					OFFSET 0.000000 0.000000 0.000000
					CHANNELS 3 Zrotation Yrotation Xrotation
					JOINT Neck1
					{
						OFFSET 0.000000 1.600000 0.340000
						CHANNELS 3 Zrotation Yrotation Xrotation
						JOINT Head
						{
							OFFSET 0.000000 1.667000 -0.240000
							CHANNELS 3 Zrotation Yrotation Xrotation
							End Site
							{
								OFFSET 0.000000 0.000000 0.000000
							}
						}
					}
				}
				JOINT LeftShoulder
				{
					OFFSET 0.000000 0.000000 0.000000
					CHANNELS 3 Zrotation Yrotation Xrotation
					JOINT LeftArm
					{
						OFFSET 2.700000 1.550000 -0.730000
						CHANNELS 3 Zrotation Yrotation Xrotation
						JOINT LeftForeArm
						{
							OFFSET 5.450000 0.000000 0.000000
							CHANNELS 3 Zrotation Yrotation Xrotation
							JOINT LeftHand
							{
								OFFSET 3.450000 0.000000 0.000000
								CHANNELS 3 Zrotation Yrotation Xrotation
								JOINT LeftHandIndex1
								{
									OFFSET 0.750000 0.000000 0.000000
									CHANNELS 3 Zrotation Yrotation Xrotation
									End Site
									{
										OFFSET 0.000000 0.000000 0.000000
									}
								}
							}
						}
					}
				}
				JOINT RightShoulder
				{
					OFFSET 0.000000 0.000000 0.000000
					CHANNELS 3 Zrotation Yrotation Xrotation
					JOINT RightArm
					{
						OFFSET -2.700000 1.550000 -0.730000
						CHANNELS 3 Zrotation Yrotation Xrotation
						JOINT RightForeArm
						{
							OFFSET -5.450000 0.000000 0.000000
							CHANNELS 3 Zrotation Yrotation Xrotation
							JOINT RightHand
							{
								OFFSET -3.450000 0.000000 0.000000
								CHANNELS 3 Zrotation Yrotation Xrotation
								JOINT RightHandIndex1
								{
									OFFSET -0.750000 0.000000 0.000000
									CHANNELS 3 Zrotation Yrotation Xrotation
									End Site
									{
										OFFSET 0.000000 0.000000 0.000000
									}
								}
							}
						}
					}
				}
			}
		}
	}
}
MOTION
Frames: 14
Frame Time: 0.016667
-1.201650 16.842360 -7.005550 1.760182 -14.813750 -9.329617 -15.359959 11.898073 4.177612 -15.209068 -5.734500 1.691322 -22.639819 16.922106 39.216556 1.119456 10.696802 1.405351 -0.220950 -0.373580 -0.541020 18.516434 -8.435351 4.074994 6.239986 9.823090 -37.132324 18.154516 -16.340250 48.086468 -1.575725 -8.426923 1.561745 -0.233890 1.007430 0.498830 -3.792917 -3.291058 -8.875407 10.395086 -11.825185 48.467983 -6.034724 -8.776849 4.357616 -0.427571 -11.146118 -10.801685 -25.194621 5.193706 30.183550 -2.199080 -3.201910 -25.120490 -6.059474 -11.040029 1.425604 16.907115 0.730460 -8.546007 80.685995 -33.330835 -26.940493 -4.171111 2.183046 0.883410 0.253700 0.166840 0.442370 7.525799 15.382856 8.220819 14.025500 -8.559722 -17.180485 -85.258563 30.403763 -28.874233 1.854277 -1.182282 -0.456540 0.826370 0.489270 0.234730 
-1.176650 16.634360 -6.955920 2.547132 -15.926801 -10.777449 -15.438744 11.799219 4.213808 -15.489621 -5.770317 2.401753 -25.422372 18.717458 39.740530 1.319202 11.257737 1.285822 -0.288810 -0.451890 -0.586420 18.480619 -8.120961 4.255995 5.046364 11.152831 -38.437850 19.646999 -18.471089 52.567669 -1.842577 -9.548455 1.267433 -0.284150 1.045330 0.475460 -3.664860 -3.535397 -9.044510 9.208951 -11.078798 52.448217 -5.444740 -8.338089 2.485843 -0.076325 -11.501277 -11.016594 -25.727361 4.640086 29.186987 -2.545080 -3.812020 -24.893130 -6.450234 -11.337846 1.351753 20.282482 3.111571 -8.401338 78.161373 -29.248444 -22.284544 -4.237184 2.191516 0.893380 0.256510 0.154300 0.450550 7.314641 16.374637 8.579231 10.718615 -12.264507 -17.517425 -86.672029 27.431957 -26.769470 1.941278 -1.221796 -0.489890 0.861280 0.507000 0.249400 
-1.161060 16.480670 -6.875830 3.294172 -16.510711 -12.468901 -15.506572 11.758951 4.231748 -15.706444 -5.245231 4.087915 -27.817526 20.162915 39.447021 1.479811 11.616066 1.195781 -0.287290 -0.432030 -0.596150 18.440665 -7.897684 4.358391 3.215468 11.871944 -38.867914 22.024647 -20.700120 55.265710 -2.079222 -10.486921 1.016148 -0.280240 1.042630 0.476220 -3.532971 -3.758870 -9.163549 7.817216 -9.904433 54.949033 -4.718909 -8.017775 2.272518 -0.090191 -11.018170 -11.077179 -24.503724 4.397570 29.202318 -2.567690 -3.625200 -23.801300 -5.834428 -11.564350 1.597968 20.690595 4.209033 -8.810993 78.228973 -25.716186 -20.012000 -4.277179 2.265353 0.865860 0.267880 0.156090 0.462920 6.755978 16.611175 8.516153 10.431205 -13.322689 -18.058954 -88.813206 25.423286 -26.384823 1.981449 -1.307429 -0.474390 0.840960 0.486930 0.262920 
-1.176170 16.389830 -6.782010 3.717536 -16.589391 -14.089251 -15.570543 11.833748 4.242156 -15.913488 -4.547588 5.892517 -28.096690 20.871508 39.797623 1.579081 11.842712 1.133791 -0.344820 -0.498260 -0.646400 18.384040 -7.756061 4.391889 2.059667 12.270203 -37.894899 23.944422 -22.354332 56.626845 -2.214128 -11.108556 0.859202 -0.323330 1.062650 0.486610 -3.352809 -4.063520 -9.260119 6.648942 -8.204264 55.844318 -3.789027 -7.005447 3.112074 -0.026960 -9.719408 -12.036469 -22.587678 4.001223 31.658656 -2.545910 -3.476480 -19.385970 -3.775326 -13.211631 2.758555 18.505126 4.507979 -9.746892 79.464287 -24.274495 -20.052562 -4.352638 2.336223 0.834460 0.308000 0.124520 0.449840 4.587763 17.969663 9.183554 15.084080 -13.831149 -20.100027 -91.680540 22.947043 -26.576044 1.990561 -1.422961 -0.470440 0.792060 0.515250 0.262180 
-1.200880 16.357570 -6.690980 3.790163 -14.805321 -14.952072 -15.509365 11.680506 4.245402 -16.390086 -4.352521 7.307181 -26.697270 21.024669 41.554264 1.646674 12.089221 1.066119 -0.364280 -0.511990 -0.650360 18.437418 -7.918712 4.353230 0.461270 11.702144 -37.143000 25.854190 -23.659411 56.393762 -2.271572 -11.451151 0.757363 -0.330380 1.115110 0.541020 -3.512934 -3.583210 -9.234080 8.229028 -8.244191 55.344547 -5.516108 -6.565012 5.370313 -0.276737 -7.604946 -11.970156 -17.813419 2.381581 31.697768 -2.974570 -3.210350 -16.579010 -0.245352 -14.058837 3.469415 14.491217 0.621417 -11.450346 81.838875 -22.954366 -21.845638 -4.460754 2.418491 0.748800 0.396030 0.086710 0.432280 1.274463 16.861909 8.685210 25.486759 -12.138593 -23.038154 -97.427693 20.979926 -29.001612 1.938277 -1.571680 -0.435840 0.762790 0.549490 0.268360 
-1.247430 16.421410 -6.584660 3.079597 -13.592352 -15.555195 -15.414113 11.618211 4.166563 -15.309155 -3.725709 9.152537 -25.110377 20.720071 42.058668 1.604457 12.094001 1.032103 -0.310890 -0.460130 -0.597990 18.499415 -8.222421 4.278866 0.198414 11.252081 -34.812037 27.133520 -23.925681 54.749789 -2.271353 -11.404607 0.714533 -0.289170 1.088180 0.623330 -3.719377 -2.968121 -9.123134 10.257452 -8.719297 54.428475 -7.789199 -6.333969 7.942254 -0.136480 -5.092387 -11.673803 -12.502833 1.719961 31.920249 -4.099320 -1.448290 -15.343180 1.262391 -15.513560 3.865493 12.362668 -1.716598 -12.723165 85.334229 -24.102633 -25.631665 -4.476324 2.529141 0.720320 0.442150 0.098100 0.422620 -0.840514 15.977381 8.248439 34.694613 -7.716245 -24.643893 -102.671286 20.849066 -33.624947 1.875364 -1.693148 -0.396860 0.667260 0.530290 0.244840 
-1.278080 16.549430 -6.408290 2.315967 -15.659431 -15.041102 -15.428593 11.853170 4.119133 -14.337219 -2.749661 9.693087 -24.415145 20.169082 40.485732 1.528363 11.771998 1.078307 -0.302120 -0.486570 -0.568470 18.457533 -8.289750 4.210751 1.911404 11.604725 -31.849118 25.920727 -22.690851 53.679949 -2.201184 -10.970476 0.806410 -0.332930 1.014160 0.661380 -3.626082 -3.192838 -9.065151 10.535355 -8.115420 52.747967 -7.390408 -5.455821 8.744353 0.416948 -5.425362 -12.814582 -13.675835 3.447276 33.946284 -4.425760 0.127040 -15.962770 0.065860 -17.074658 5.436842 5.906462 0.684665 -13.622654 93.463924 -28.660584 -35.312929 -4.395321 2.534005 0.769820 0.391080 0.134710 0.378510 -0.698383 18.445434 8.849927 38.632141 -3.757276 -25.364763 -102.326322 20.672834 -34.734410 1.882381 -1.647544 -0.356570 0.589640 0.549460 0.212890 
-1.315830 16.702330 -6.200190 1.091798 -16.089481 -12.981813 -15.381380 12.023748 4.028254 -12.807856 -2.568545 9.253040 -22.914496 19.234780 39.716755 1.485955 11.366508 1.188273 -0.269250 -0.443390 -0.546000 18.469786 -8.457227 4.144887 3.644708 11.213597 -30.366801 23.906081 -21.236138 52.397298 -2.062534 -10.413634 0.978918 -0.331060 0.970080 0.617630 -3.688009 -3.204256 -8.969794 12.249050 -8.488337 47.277438 -7.092427 -5.292882 10.542539 0.631794 -6.001074 -14.075327 -15.884966 5.261543 37.060107 -3.457200 0.921830 -13.034580 -1.234316 -18.041429 7.411876 -3.122393 -0.348020 -13.417899 100.714550 -34.998150 -49.011392 -4.256759 2.433266 0.742270 0.356320 0.137580 0.390560 0.301442 19.901302 9.284229 41.038918 -0.584686 -24.721960 -101.842464 23.086211 -38.468640 1.889977 -1.586072 -0.326660 0.557270 0.493880 0.221390 
-1.375030 16.894230 -6.012560 0.390814 -16.667030 -11.519508 -15.349801 12.242913 3.931266 -10.907524 -2.041634 9.212634 -22.207481 18.484017 37.996916 1.420894 10.965917 1.293362 -0.260130 -0.409740 -0.577660 18.468153 -8.620583 4.049587 5.694008 10.792012 -28.296579 20.710986 -19.112748 51.147827 -1.889782 -9.717763 1.190303 -0.332090 0.968050 0.601690 -3.700722 -3.301187 -8.851409 12.919774 -8.086657 42.175294 -6.485051 -4.727885 12.823029 0.653654 -6.488194 -15.380362 -18.478776 6.746636 40.235845 -1.962050 0.667140 -10.039870 -1.327982 -18.661769 9.308662 -13.992402 -4.495675 -13.181869 103.913528 -36.965771 -57.477523 -4.193745 2.388809 0.719890 0.344350 0.143300 0.410080 0.489021 20.858324 9.966858 44.470601 0.786603 -24.496448 -98.807677 28.349520 -43.240630 1.863139 -1.444746 -0.296540 0.547090 0.479360 0.251690 
-1.436930 17.096700 -5.827190 -0.212124 -17.390827 -10.294905 -15.317373 12.464264 3.819847 -8.841577 -1.445582 8.970060 -21.650654 18.064181 36.658968 1.415563 10.618606 1.377585 -0.192770 -0.321570 -0.548390 18.472827 -8.764570 3.957710 7.825251 10.409819 -25.814333 17.159425 -16.703531 49.663330 -1.727527 -8.923815 1.436427 -0.325830 0.910820 0.608570 -3.726807 -3.404472 -8.699093 13.745762 -8.005260 37.936574 -6.677824 -4.440348 13.749875 1.143496 -7.370703 -16.303609 -21.718720 8.935471 41.585130 -1.192960 1.111190 -9.069820 -1.835159 -17.596255 10.399276 -24.502328 -7.906459 -12.239172 105.523076 -38.619694 -63.664162 -4.078766 2.411430 0.699060 0.301130 0.188850 0.437620 0.200336 20.487440 10.372539 47.624190 2.083190 -23.365492 -95.687493 37.066744 -50.038159 1.827122 -1.197546 -0.220020 0.499550 0.416640 0.280410 
-1.495960 17.312410 -5.629680 -0.876247 -17.129242 -8.832082 -15.337719 12.781392 3.724300 -6.839070 -1.418015 8.037651 -20.368194 17.387610 36.220319 1.343626 10.331387 1.446945 -0.156390 -0.281560 -0.523560 18.423285 -8.825977 3.838684 9.541494 9.491570 -23.792036 13.923934 -14.605388 47.730242 -1.565496 -8.134186 1.678467 -0.322960 0.868090 0.605700 -3.579489 -3.838490 -8.572303 13.998193 -7.762600 33.753644 -5.966174 -4.232044 13.961971 1.866637 -8.048692 -16.752404 -24.767039 10.188667 42.650830 -1.650780 0.956730 -9.111850 -2.778994 -15.372243 10.531137 -34.209476 -11.843787 -9.568469 104.618961 -45.088071 -70.956451 -3.980221 2.262623 0.718740 0.261650 0.227930 0.451840 -0.121520 18.990376 10.487170 50.036781 2.246290 -22.313821 -90.196985 48.137107 -54.132702 1.702070 -0.671599 -0.193760 0.491110 0.383810 0.287090 
-1.553970 17.555450 -5.456080 -0.766989 -16.262303 -7.839598 -15.354444 13.122924 3.683463 -5.108314 -1.693783 6.578200 -18.790928 16.925151 37.182688 1.321188 10.184447 1.475767 -0.116600 -0.228870 -0.535910 18.354154 -8.965394 3.652185 9.942474 8.080221 -21.827305 11.142825 -12.553305 44.711745 -1.366606 -7.266819 1.955177 -0.309740 0.844290 0.590080 -3.396506 -4.248907 -8.478945 12.923335 -7.430788 30.769892 -4.795831 -4.227085 13.009837 2.187052 -8.529370 -17.433012 -27.457575 12.153213 43.686614 0.166480 0.729430 -7.327210 -4.509802 -13.973456 10.847319 -41.293522 -11.438611 -8.201736 102.248013 -53.883833 -77.449218 -3.881138 1.990127 0.731650 0.225500 0.252190 0.495390 1.278974 18.290433 10.645648 50.329376 0.609470 -23.675077 -79.681813 61.765973 -52.200628 1.323492 0.294853 -0.175030 0.464390 0.330110 0.311970 
-1.618180 17.767480 -5.277740 -0.132701 -15.682153 -6.660618 -15.327154 13.272590 3.644017 -4.054256 -1.965420 4.265267 -17.209130 16.892833 39.384451 1.401867 10.218324 1.458525 -0.125290 -0.231710 -0.552800 18.329360 -9.172818 3.554711 9.448661 7.360032 -20.992046 9.222200 -11.136894 42.874292 -1.206179 -6.734426 2.139624 -0.339600 0.856750 0.581790 -3.360706 -4.188730 -8.439417 11.726093 -6.309706 27.337081 -4.097001 -3.375506 11.425115 1.896663 -8.121721 -17.669011 -27.110944 12.986120 46.291460 2.548750 0.247120 -2.680760 -4.405394 -11.955485 10.875161 -47.951853 -10.209580 -7.746338 93.765275 -66.208081 -77.775741 -3.765881 1.031224 0.666250 0.237710 0.234890 0.507960 1.779019 16.520542 10.392334 52.870702 -0.343770 -26.467814 -51.372782 71.684892 -37.073089 1.321293 -0.152541 -0.131660 0.420580 0.303960 0.343990 
-1.675670 17.960810 -5.122620 0.504847 -15.156944 -5.819744 -15.316982 13.400952 3.604647 -2.834698 -2.376591 1.634440 -15.460475 17.042450 42.623809 1.409607 10.481023 1.354363 -0.150500 -0.251150 -0.600730 18.292781 -9.365918 3.451843 8.794680 6.788684 -20.551266 6.897391 -9.785357 41.629070 -1.085847 -6.318471 2.277254 -0.350720 0.892640 0.596810 -3.287104 -4.104178 -8.375119 10.315475 -5.500867 24.546905 -3.798605 -2.863709 9.804540 2.114268 -7.894644 -17.445407 -26.581763 13.960895 48.393375 2.841800 0.694360 -0.969520 -5.478027 -10.537623 10.021706 -52.632693 -8.042943 -13.165932 57.980020 -79.510050 -55.287999 -3.465484 1.543359 0.672040 0.262860 0.229420 0.518440 2.460034 15.449605 10.396255 54.212996 0.382228 -23.435578 -18.438867 69.896142 -16.024660 1.641588 -1.071080 -0.138780 0.422140 0.328550 0.356980 
